<svg width="48" height="48" viewBox="0 0 48 48" fill="none" xmlns="http://www.w3.org/2000/svg">
<circle cx="24" cy="24" r="23" stroke="#A5A5A5" stroke-width="2"/>
<path d="M23.0883 31.9894C23.8103 31.9894 24.3397 31.4503 24.3397 30.738V16.0389C24.3397 15.3169 23.8103 14.7394 23.0691 14.7394C22.5781 14.7394 22.2316 14.9512 21.7021 15.4517L17.6784 19.2155C17.6207 19.2733 17.5437 19.3022 17.457 19.3022H14.7328C13.3082 19.3022 12.5381 20.0915 12.5381 21.5835V25.1645C12.5381 26.6565 13.3082 27.4459 14.7328 27.4459H17.457C17.5437 27.4459 17.611 27.4747 17.6784 27.5325L21.7021 31.3252C22.1835 31.7872 22.5878 31.9894 23.0883 31.9894ZM31.6459 30.2278C32.0887 30.4973 32.6278 30.4011 32.9358 29.9486C34.1872 28.1774 34.9188 25.7998 34.9188 23.3548C34.9188 20.9097 34.1968 18.5224 32.9358 16.7609C32.6278 16.3084 32.0887 16.2025 31.6459 16.4817C31.1839 16.7705 31.1165 17.3481 31.463 17.8582C32.4834 19.3599 33.0706 21.314 33.0706 23.3548C33.0706 25.3859 32.4738 27.34 31.463 28.8513C31.1261 29.3615 31.1839 29.9294 31.6459 30.2278ZM27.7762 27.648C28.1902 27.9175 28.7292 27.8213 29.0276 27.3977C29.8073 26.3581 30.2694 24.8853 30.2694 23.3548C30.2694 21.8242 29.8073 20.361 29.0276 19.3118C28.7292 18.8882 28.1902 18.792 27.7762 19.0711C27.3045 19.3792 27.2083 19.9471 27.5933 20.5054C28.1228 21.2659 28.4212 22.2863 28.4212 23.3548C28.4212 24.4233 28.1131 25.434 27.5933 26.2041C27.2179 26.7624 27.3045 27.3303 27.7762 27.648Z" fill="#A5A5A5"/>
</svg>
