<svg width="32" height="32" viewBox="0 0 32 32" fill="none" xmlns="http://www.w3.org/2000/svg">
<g id="Lock" clip-path="url(#clip0_218_593)">
<path id="Vector" d="M24 10.6666H22.6667V7.99998C22.6667 4.31998 19.68 1.33331 16 1.33331C12.32 1.33331 9.33337 4.31998 9.33337 7.99998V10.6666H8.00004C6.53337 10.6666 5.33337 11.8666 5.33337 13.3333V26.6666C5.33337 28.1333 6.53337 29.3333 8.00004 29.3333H24C25.4667 29.3333 26.6667 28.1333 26.6667 26.6666V13.3333C26.6667 11.8666 25.4667 10.6666 24 10.6666ZM16 22.6666C14.5334 22.6666 13.3334 21.4666 13.3334 20C13.3334 18.5333 14.5334 17.3333 16 17.3333C17.4667 17.3333 18.6667 18.5333 18.6667 20C18.6667 21.4666 17.4667 22.6666 16 22.6666ZM20.1334 10.6666H11.8667V7.99998C11.8667 5.71998 13.72 3.86665 16 3.86665C18.28 3.86665 20.1334 5.71998 20.1334 7.99998V10.6666Z" fill="#9BA5B7"/>
</g>
<defs>
<clipPath id="clip0_218_593">
<rect width="32" height="32" fill="white"/>
</clipPath>
</defs>
</svg>
