<svg width="64" height="64" viewBox="0 0 64 64" fill="none" xmlns="http://www.w3.org/2000/svg">
<g id="Mic" clip-path="url(#clip0_218_232)">
<path id="Vector" d="M32.0002 37.3334C36.4268 37.3334 39.9735 33.76 39.9735 29.3334L40.0002 13.3334C40.0002 8.90671 36.4268 5.33337 32.0002 5.33337C27.5735 5.33337 24.0002 8.90671 24.0002 13.3334V29.3334C24.0002 33.76 27.5735 37.3334 32.0002 37.3334ZM46.1335 29.3334C46.1335 37.3334 39.3602 42.9334 32.0002 42.9334C24.6402 42.9334 17.8668 37.3334 17.8668 29.3334H13.3335C13.3335 38.4267 20.5868 45.9467 29.3335 47.2534V56H34.6668V47.2534C43.4135 45.9734 50.6668 38.4534 50.6668 29.3334H46.1335Z" fill="#6D6D6D"/>
</g>
<defs>
<clipPath id="clip0_218_232">
<rect width="64" height="64" fill="white"/>
</clipPath>
</defs>
</svg>
