<svg width="65" height="65" viewBox="0 0 65 65" fill="none" xmlns="http://www.w3.org/2000/svg">
<g id="speaker.wave.2.fill">
<path id="speaker.wave.2.fill_2" d="M31.1007 49.6445C32.6048 49.6445 33.7078 48.5215 33.7078 47.0375V16.4144C33.7078 14.9103 32.6048 13.707 31.0606 13.707C30.0378 13.707 29.3159 14.1482 28.2129 15.1911L19.8301 23.0323C19.7098 23.1527 19.5494 23.2128 19.3689 23.2128H13.6935C10.7254 23.2128 9.12109 24.8573 9.12109 27.9657V35.426C9.12109 38.5344 10.7254 40.1789 13.6935 40.1789H19.3689C19.5494 40.1789 19.6898 40.239 19.8301 40.3593L28.2129 48.2608C29.2156 49.2234 30.0579 49.6445 31.1007 49.6445ZM48.9291 45.9746C49.8516 46.5361 50.9746 46.3356 51.6164 45.393C54.2235 41.703 55.7476 36.7495 55.7476 31.6557C55.7476 26.5619 54.2435 21.5884 51.6164 17.9185C50.9746 16.9759 49.8516 16.7553 48.9291 17.3369C47.9665 17.9385 47.8261 19.1418 48.5481 20.2047C50.6738 23.3331 51.8971 27.4042 51.8971 31.6557C51.8971 35.8872 50.6538 39.9583 48.5481 43.1068C47.8462 44.1697 47.9665 45.3529 48.9291 45.9746ZM40.8672 40.6C41.7296 41.1615 42.8526 40.961 43.4743 40.0786C45.0987 37.9127 46.0613 34.8444 46.0613 31.6557C46.0613 28.4671 45.0987 25.4188 43.4743 23.2329C42.8526 22.3505 41.7296 22.1499 40.8672 22.7315C39.8846 23.3733 39.684 24.5565 40.4862 25.7196C41.5892 27.3039 42.2109 29.4297 42.2109 31.6557C42.2109 33.8818 41.5691 35.9875 40.4862 37.5918C39.7041 38.755 39.8846 39.9382 40.8672 40.6Z" fill="#6D6D6D"/>
</g>
</svg>
